<svg id="Layer_1" data-name="Layer 1" xmlns="http://www.w3.org/2000/svg" viewBox="0 0 477.44 921.87"><defs><style>.cls-1,.cls-2{fill:none;}.cls-1{stroke:#bf2b00;}.cls-2{stroke:#0d00f4;}</style></defs><title>map</title><path id="trail-path" class="cls-1" d="M406,1153l31,10,90-37,18-25-15.63-10,9.85-24.37,5.78-25.4,8.74-21.77,8.81-18.66L575,984.73l34.22-42,41.47-52.35,51.84-85-4.67-8.82,58.59-8.29,20.73-3.63-7.77-47.18-22.81-31.62,2.59-15.55,11.4-18.15,29.55-32.66,8.3-7.77L787,601.1l-3.63-27,7.26-23.84-12.44,8.81,10.37-33.7,19.7,6.74,13-15L750.73,477.2c-.15-.07-4.36-2.81-5.18-2.07s.22,5,2.41,5.86c4.16,1.71,11.56-8.25,12.54-9.6l15.83-30.84,20.87-36.09,27.63-51.32,25.38-44,9.59-16.36,14.1-10.71,8.46-14.1-14.67-10.15-20.86-13L823.71,281l-16.92-7.33-13,23.12,10.71,6.77-24.25,44L759.42,387a10.05,10.05,0,0,1-4.52,4.51c-3.89,1.77-6.56-.79-10.71.57-3.48,1.14-5.37,4.18-7.33,7.33-1.5,2.4-2.5,5.55-4.51,11.84-.66,2.07-1,3.2-2,6.4-1.12,3.43-1.68,5.14-2.32,6.63-1.77,4.18-2.65,6.27-4.63,7.95-3.18,2.7-5.48,1.4-7,3.65-1.18,1.78-.33,3.52,1,10.27,2,10,1,11,.66,11.26-1,.8-2.53.23-8.94-2.65-12.13-5.44-13.75-6.58-14.25-8.61-.57-2.33.67-4.37,2.65-7.62,4-6.58,8-7.16,10.94-12.26a19.45,19.45,0,0,0,2.32-10.94" transform="translate(-405.59 -241.66)"/><path class="cls-2" id="camera-path" d="M405.78,1155.92c8.33,3.45,27,9.67,47.67,3.4,4.32-1.3,7-2.61,12.38-5.26,50.77-24.86,55.26-25.15,60.68-32.2,10.28-13.36,3.75-24.83,5.88-49.53,2.49-28.88,16.93-50.83,45.82-94.72,38.86-59.07,46.92-48.29,72.13-91,31.22-52.94,26.85-80.41,51.69-88.23,9-2.81,53-12.91,73.37-9.9a4.86,4.86,0,0,0,3.72-.62c5.48-4.39-7.18-26.28-23.22-66.56-2.51-6.3-6.82-10.93-7.12-18.57-.45-11.31,6.12-20,12.69-28.48,7.9-10.18,26.8-30.26,35.29-37.46a8.73,8.73,0,0,0,3.1-4.64c.85-3.85-1.91-7.46-2.79-8.67-8.32-11.42-13.3-33.83-14.55-41.18-1.1-6.47-.94-11.12-.62-20.43.56-16.13,1-27.6,7.74-31.57,4.8-2.81,8.11.86,15.48-2.48.73-.33,10-4.67,10.53-10.83.71-9-17.45-20.1-33.44-24.46-10.81-2.95-20.63-2.81-28.17-10.84-3.29-3.49-3.79-6-3.71-7.73.28-6.46,9.3-10.78,11.14-11.77,17.42-9.4,25.73-47.27,50.77-93.18,23.3-42.7,34.94-64.05,48.6-74.6,4.12-3.18,18.34-13.56,17-25.08-.45-4-2.63-6.8-6.5-11.76-3.51-4.5-13.41-17.2-22.29-15.17-3.79.87-5.85,4.06-9.29,9.59-9.83,15.81-7.74,27-13.31,28.79-6.42,2-12.64-11.84-19.81-9.59-3.61,1.13-2.7,4.85-10.84,17-3.29,4.93-5.11,6.82-4.33,8.67,1.65,4,12.17.84,14.55,5,2.12,3.66-3.67,10.52-6.81,14.54-18.93,24.25-38.44,69.1-40.55,74.92a4.06,4.06,0,0,1-1.86,2.48c-3.38,1.56-7.44-5.55-12.38-5.27s-8.19,7.67-9.6,10.84c-5.21,11.69-.19,17.09-5.88,28.17-1.48,2.88-4.28,8.15-9.29,9.29-3.34.76-5.39-.84-6.5.31-3,3.13,9.29,18.12,7.12,20.12-1,.91-3.58-2.18-11.15-5.26-6.19-2.53-9.62-2.55-13-6.2-1.6-1.72-2.93-3.15-2.78-4.95.37-4.7,10.26-4.63,15.78-11.45,2.21-2.72,4.29-7.25,3.72-15.17" transform="translate(-405.59 -241.66)"/></svg>